<?xml version="1.0" encoding="utf-8"?>
<!-- Generator: Adobe Illustrator 21.1.0, SVG Export Plug-In . SVG Version: 6.00 Build 0)  -->
<svg version="1.1" id="Layer_1" xmlns="http://www.w3.org/2000/svg" xmlns:xlink="http://www.w3.org/1999/xlink" x="0px" y="0px"
	 viewBox="0 0 398.8 92.9" width="100" height="27" style="enable-background:new 0 0 398.8 92.9;" xml:space="preserve">
<g>
	<path d="M59.9,57.3c-0.9,0.8-2,1.2-3.2,1.2H22.2c0.5,4.8,2.3,8.6,5.4,11.5c3.2,2.9,7,4.3,11.6,4.3c3.1,0,5.7-0.5,7.6-1.4
		c2-0.9,3.7-2.1,5.2-3.5c1-0.6,1.9-0.9,2.8-0.9c1.1,0,2,0.4,2.8,1.2c0.8,0.8,1.1,1.7,1.1,2.7c0,1.4-0.7,2.6-2,3.7
		c-1.9,1.9-4.4,3.5-7.5,4.8c-3.1,1.3-6.3,2-9.6,2c-5.3,0-9.9-1.1-14-3.3c-4-2.2-7.1-5.3-9.3-9.3c-2.2-4-3.3-8.5-3.3-13.5
		c0-5.5,1.1-10.3,3.4-14.5c2.3-4.1,5.2-7.3,8.9-9.6c3.7-2.2,7.7-3.3,11.9-3.3c4.2,0,8.1,1.1,11.8,3.2c3.7,2.2,6.6,5.1,8.8,8.9
		c2.2,3.8,3.4,8,3.4,12.7C61.3,55.5,60.8,56.5,59.9,57.3z M27.9,41.2c-2.7,2.1-4.4,5.2-5.3,9.6h28.9v-0.8c-0.3-3.5-1.9-6.3-4.7-8.5
		c-2.8-2.2-5.9-3.3-9.5-3.3C33.7,38.1,30.6,39.1,27.9,41.2z"/>
	<path d="M80.9,80.6c-0.9,0.9-2,1.4-3.3,1.4c-1.3,0-2.4-0.5-3.3-1.4c-0.9-0.9-1.3-2-1.3-3.3V14.2c0-1.3,0.5-2.4,1.4-3.3
		c0.9-0.9,2-1.4,3.3-1.4c1.3,0,2.4,0.5,3.3,1.4c0.9,0.9,1.3,2,1.3,3.3v63.1C82.3,78.6,81.8,79.7,80.9,80.6z"/>
	<path d="M105.7,80.6c-0.9,0.9-2,1.4-3.3,1.4c-1.3,0-2.4-0.5-3.3-1.4c-0.9-0.9-1.3-2-1.3-3.3V14.2c0-1.3,0.5-2.4,1.4-3.3
		c0.9-0.9,2-1.4,3.3-1.4c1.3,0,2.4,0.5,3.3,1.4c0.9,0.9,1.3,2,1.3,3.3v63.1C107.1,78.6,106.6,79.7,105.7,80.6z"/>
	<path d="M121.8,22.6c-0.8-0.7-1.2-1.8-1.2-3.3v-1.6c0-1.6,0.4-2.7,1.3-3.3c0.9-0.7,2.2-1,4.1-1c1.8,0,3.2,0.3,4,1
		c0.8,0.7,1.2,1.8,1.2,3.3v1.6c0,1.6-0.4,2.7-1.3,3.3c-0.8,0.7-2.2,1-4,1C124,23.7,122.6,23.3,121.8,22.6z M129.3,80.6
		c-0.9,0.9-2,1.4-3.4,1.4c-1.3,0-2.4-0.5-3.3-1.4c-0.9-0.9-1.3-2-1.3-3.3V34.8c0-1.3,0.4-2.4,1.3-3.3c0.9-0.9,2-1.4,3.3-1.4
		c1.4,0,2.5,0.5,3.4,1.4c0.9,0.9,1.3,2,1.3,3.3v42.4C130.6,78.6,130.1,79.7,129.3,80.6z"/>
	<path d="M187.6,57.3c-0.9,0.8-2,1.2-3.2,1.2h-34.5c0.5,4.8,2.3,8.6,5.4,11.5c3.2,2.9,7,4.3,11.6,4.3c3.1,0,5.7-0.5,7.6-1.4
		c2-0.9,3.7-2.1,5.2-3.5c1-0.6,1.9-0.9,2.8-0.9c1.1,0,2,0.4,2.8,1.2c0.8,0.8,1.1,1.7,1.1,2.7c0,1.4-0.7,2.6-2,3.7
		c-1.9,1.9-4.4,3.5-7.5,4.8c-3.1,1.3-6.3,2-9.6,2c-5.3,0-9.9-1.1-14-3.3c-4-2.2-7.1-5.3-9.3-9.3c-2.2-4-3.3-8.5-3.3-13.5
		c0-5.5,1.1-10.3,3.4-14.5c2.3-4.1,5.2-7.3,8.9-9.6c3.7-2.2,7.7-3.3,11.9-3.3c4.2,0,8.1,1.1,11.8,3.2c3.7,2.2,6.6,5.1,8.8,8.9
		c2.2,3.8,3.4,8,3.4,12.7C189,55.5,188.5,56.5,187.6,57.3z M155.6,41.2c-2.7,2.1-4.4,5.2-5.3,9.6h28.9v-0.8
		c-0.3-3.5-1.9-6.3-4.7-8.5c-2.8-2.2-5.9-3.3-9.5-3.3C161.4,38.1,158.3,39.1,155.6,41.2z"/>
	<path d="M270.8,50.6v26.7c0,1.3-0.4,2.4-1.3,3.3c-0.9,0.9-2,1.4-3.4,1.4c-1.3,0-2.4-0.5-3.3-1.4c-0.9-0.9-1.3-2-1.3-3.3V50.7
		c0-3.9-0.9-6.9-2.6-9.2c-1.8-2.3-4.6-3.4-8.6-3.4c-2.6,0-5,0.6-7.1,1.7c-2.1,1.1-3.8,2.7-5,4.6c-1.2,1.9-1.8,4-1.8,6.3v26.6
		c0,1.3-0.4,2.4-1.3,3.3c-0.9,0.9-2,1.4-3.4,1.4c-1.4,0-2.5-0.4-3.3-1.3c-0.9-0.9-1.3-2-1.3-3.4V35.3c0-1.3,0.4-2.4,1.3-3.3
		c0.9-0.9,2-1.4,3.3-1.4c1.4,0,2.5,0.5,3.4,1.4c0.9,0.9,1.3,2,1.3,3.3v3.4c1.7-2.6,4.1-4.8,7.1-6.6c3-1.8,6.3-2.7,9.8-2.7
		C264.9,29.4,270.8,36.5,270.8,50.6z"/>
	<path d="M328.3,57.3c-0.9,0.8-2,1.2-3.2,1.2h-34.5c0.5,4.8,2.3,8.6,5.4,11.5c3.2,2.9,7,4.3,11.6,4.3c3.1,0,5.7-0.5,7.6-1.4
		c2-0.9,3.7-2.1,5.2-3.5c1-0.6,1.9-0.9,2.8-0.9c1.1,0,2,0.4,2.8,1.2c0.8,0.8,1.1,1.7,1.1,2.7c0,1.4-0.7,2.6-2,3.7
		c-1.9,1.9-4.4,3.5-7.5,4.8c-3.1,1.3-6.3,2-9.6,2c-5.3,0-9.9-1.1-14-3.3c-4-2.2-7.1-5.3-9.3-9.3c-2.2-4-3.3-8.5-3.3-13.5
		c0-5.5,1.1-10.3,3.4-14.5c2.3-4.1,5.2-7.3,8.9-9.6c3.7-2.2,7.7-3.3,11.9-3.3c4.2,0,8.1,1.1,11.8,3.2c3.7,2.2,6.6,5.1,8.8,8.9
		c2.2,3.8,3.4,8,3.4,12.7C329.7,55.5,329.3,56.5,328.3,57.3z M296.3,41.2c-2.7,2.1-4.4,5.2-5.3,9.6h28.9v-0.8
		c-0.3-3.5-1.9-6.3-4.7-8.5c-2.8-2.2-5.9-3.3-9.5-3.3C302.1,38.1,299,39.1,296.3,41.2z"/>
	<path d="M384.2,57.3c-0.9,0.8-2,1.2-3.2,1.2h-34.5c0.5,4.8,2.3,8.6,5.4,11.5c3.2,2.9,7,4.3,11.6,4.3c3.1,0,5.7-0.5,7.6-1.4
		c2-0.9,3.7-2.1,5.2-3.5c1-0.6,1.9-0.9,2.8-0.9c1.1,0,2,0.4,2.8,1.2c0.8,0.8,1.1,1.7,1.1,2.7c0,1.4-0.7,2.6-2,3.7
		c-1.9,1.9-4.4,3.5-7.5,4.8c-3.1,1.3-6.3,2-9.6,2c-5.3,0-9.9-1.1-14-3.3c-4-2.2-7.1-5.3-9.3-9.3c-2.2-4-3.3-8.5-3.3-13.5
		c0-5.5,1.1-10.3,3.4-14.5c2.3-4.1,5.2-7.3,8.9-9.6c3.7-2.2,7.7-3.3,11.9-3.3c4.2,0,8.1,1.1,11.8,3.2c3.7,2.2,6.6,5.1,8.8,8.9
		c2.2,3.8,3.4,8,3.4,12.7C385.6,55.5,385.1,56.5,384.2,57.3z M352.2,41.2c-2.7,2.1-4.4,5.2-5.3,9.6h28.9v-0.8
		c-0.3-3.5-1.9-6.3-4.7-8.5c-2.8-2.2-5.9-3.3-9.5-3.3C358,38.1,354.8,39.1,352.2,41.2z"/>
</g>
</svg>
